<?xml version="1.0" encoding="UTF-8" standalone="no"?>
<!-- Created with Inkscape (http://www.inkscape.org/) -->

<svg
   width="210mm"
   height="297mm"
   viewBox="0 0 210 297"
   version="1.1"
   id="svg5"
   inkscape:version="1.1.1 (3bf5ae0d25, 2021-09-20)"
   sodipodi:docname="startrekschoolLOGO.svg"
   xmlns:inkscape="http://www.inkscape.org/namespaces/inkscape"
   xmlns:sodipodi="http://sodipodi.sourceforge.net/DTD/sodipodi-0.dtd"
   xmlns="http://www.w3.org/2000/svg"
   xmlns:svg="http://www.w3.org/2000/svg">
  <sodipodi:namedview
     id="namedview7"
     pagecolor="#ffffff"
     bordercolor="#666666"
     borderopacity="1.0"
     inkscape:pageshadow="2"
     inkscape:pageopacity="0.0"
     inkscape:pagecheckerboard="0"
     inkscape:document-units="mm"
     showgrid="false"
     inkscape:zoom="1"
     inkscape:cx="530.5"
     inkscape:cy="473.5"
     inkscape:window-width="1920"
     inkscape:window-height="932"
     inkscape:window-x="0"
     inkscape:window-y="0"
     inkscape:window-maximized="1"
     inkscape:current-layer="layer1"
     showguides="true"
     inkscape:guide-bbox="true">
    <sodipodi:guide
       position="54.255713,205.70074"
       orientation="1,0"
       id="guide70609" />
    <sodipodi:guide
       position="153.78688,197.09466"
       orientation="1,0"
       id="guide70611" />
    <sodipodi:guide
       position="102.52459,201.21061"
       orientation="1,0"
       id="guide70613" />
    <sodipodi:guide
       position="102.52459,86.712339"
       orientation="0,-1"
       id="guide70674" />
    <sodipodi:guide
       position="40.150617,41.377865"
       orientation="0,-1"
       id="guide70676" />
    <sodipodi:guide
       position="123.10434,57.526506"
       orientation="0,-1"
       id="guide70678" />
    <sodipodi:guide
       position="115.32191,191.96333"
       orientation="0,-1"
       id="guide70680" />
  </sodipodi:namedview>
  <defs
     id="defs2">
    <rect
       x="101.65321"
       y="313.95921"
       width="283.04102"
       height="71.127523"
       id="rect5115" />
    <rect
       x="101.65321"
       y="313.9592"
       width="283.04102"
       height="71.127525"
       id="rect5115-5" />
    <rect
       x="101.65321"
       y="313.9592"
       width="107.23323"
       height="48.962326"
       id="rect5115-4" />
    <rect
       x="101.65321"
       y="313.9592"
       width="283.04102"
       height="71.127525"
       id="rect5115-5-1" />
    <rect
       x="101.65321"
       y="313.9592"
       width="130.85183"
       height="47.183778"
       id="rect5115-4-5" />
    <rect
       x="101.65321"
       y="313.9592"
       width="107.23323"
       height="48.962326"
       id="rect5115-4-6" />
    <rect
       x="101.65321"
       y="313.9592"
       width="130.85184"
       height="47.183777"
       id="rect5115-4-5-4" />
  </defs>
  <g
     inkscape:label="Layer 1"
     inkscape:groupmode="layer"
     id="layer1">
    <text
       xml:space="preserve"
       transform="matrix(0.4379736,0,0,0.4379736,16.583095,-2.7803465)"
       id="text5113-1"
       style="font-style:normal;font-weight:normal;font-size:40px;line-height:1.25;font-family:sans-serif;white-space:pre;shape-inside:url(#rect5115-5);fill:#d4aa00;fill-opacity:1;stroke:none"><tspan
         x="101.65234"
         y="350.06528"
         id="tspan70723"><tspan
           style="font-family:Sterilict;-inkscape-font-specification:'Sterilict, Normal'"
           id="tspan70721">school</tspan></tspan></text>
    <text
       xml:space="preserve"
       transform="matrix(0.72747813,0,0,0.72747813,-14.801784,-14.319602)"
       id="text5113-6"
       style="font-style:normal;font-weight:normal;font-size:40px;line-height:1.25;font-family:sans-serif;white-space:pre;shape-inside:url(#rect5115-4);fill:#000000;fill-opacity:1;stroke:none"><tspan
         x="101.65234"
         y="349.34961"
         id="tspan70727"><tspan
           style="font-family:'DISCOVER STAR TYPE';-inkscape-font-specification:'DISCOVER STAR TYPE, Normal'"
           id="tspan70725">star</tspan></tspan></text>
    <text
       xml:space="preserve"
       transform="matrix(0.72747813,0,0,0.72747813,59.994504,-14.276905)"
       id="text5113-6-9"
       style="font-style:normal;font-weight:normal;font-size:40px;line-height:1.25;font-family:sans-serif;white-space:pre;shape-inside:url(#rect5115-4-5);fill:#000000;fill-opacity:1;stroke:none"><tspan
         x="101.65234"
         y="349.34961"
         id="tspan70731"><tspan
           style="font-family:'DISCOVER STAR TYPE';-inkscape-font-specification:'DISCOVER STAR TYPE, Normal'"
           id="tspan70729">trek</tspan></tspan></text>
    <text
       xml:space="preserve"
       transform="matrix(0.64707612,0,0,0.64707612,-26.57335,-91.486158)"
       id="text5113-6-7"
       style="font-style:normal;font-weight:normal;font-size:40px;line-height:1.25;font-family:sans-serif;white-space:pre;shape-inside:url(#rect5115-4-6);fill:#000000;fill-opacity:1;stroke:none"><tspan
         x="101.65234"
         y="349.34961"
         id="tspan70735"><tspan
           style="font-family:'DISCOVER STAR TYPE';-inkscape-font-specification:'DISCOVER STAR TYPE, Normal'"
           id="tspan70733">star</tspan></tspan></text>
    <text
       xml:space="preserve"
       transform="matrix(0.64707612,0,0,0.64707612,39.956339,-91.44818)"
       id="text5113-6-9-9"
       style="font-style:normal;font-weight:normal;font-size:40px;line-height:1.25;font-family:sans-serif;white-space:pre;shape-inside:url(#rect5115-4-5-4);fill:#000000;fill-opacity:1;stroke:none"><tspan
         x="101.65234"
         y="349.34961"
         id="tspan70739"><tspan
           style="font-family:'DISCOVER STAR TYPE';-inkscape-font-specification:'DISCOVER STAR TYPE, Normal'"
           id="tspan70737">trek</tspan></tspan></text>
    <text
       xml:space="preserve"
       transform="matrix(0.4220221,0,0,0.4220221,17.663993,107.87004)"
       id="text5113-1-5"
       style="font-style:normal;font-weight:normal;font-size:40px;line-height:1.25;font-family:sans-serif;white-space:pre;shape-inside:url(#rect5115-5-1);fill:#d4aa00;fill-opacity:1;stroke:none"><tspan
         x="101.65234"
         y="350.06528"
         id="tspan70743"><tspan
           style="font-family:Sterilict;-inkscape-font-specification:'Sterilict, Normal'"
           id="tspan70741">school</tspan></tspan></text>
    <path
       style="fill:#d4aa00;stroke-width:0.0426078"
       d="m 24.709439,255.28004 -0.360702,-0.33376 0.72287,-0.72123 c 2.264837,-2.25973 4.708615,-3.71979 7.18166,-4.2908 0.810855,-0.18723 1.315854,-0.24299 2.192808,-0.24213 1.460144,0.002 1.696456,0.0605 4.29669,1.07738 2.438229,0.95334 3.37491,1.28429 3.903094,1.37901 0.511097,0.0917 1.742818,0.12435 2.373614,0.063 0.286099,-0.0279 0.707839,-0.096 0.937213,-0.15139 0.229361,-0.0555 0.423464,-0.0944 0.431334,-0.0866 0.0079,0.007 -0.218932,0.16864 -0.504013,0.35725 -0.873609,0.57804 -1.759037,0.96004 -2.69925,1.16456 -0.371536,0.0808 -0.564269,0.0942 -1.369745,0.095 -0.80778,7.4e-4 -0.993337,-0.0118 -1.342147,-0.0908 -1.307997,-0.29623 -2.644864,-1.03266 -4.30339,-2.37054 -0.665251,-0.53664 -1.293013,-0.84571 -2.063946,-1.01613 -0.323514,-0.0716 -0.492912,-0.0823 -1.046421,-0.066 -0.562819,0.0164 -0.732841,0.0385 -1.150414,0.14987 -0.269494,0.0719 -0.632298,0.18872 -0.80623,0.25977 -0.65854,0.26903 -1.692982,0.97465 -2.73022,1.86237 -0.603662,0.51665 -2.365036,2.2693 -2.875362,2.86113 -0.207123,0.24022 -0.387872,0.43607 -0.401663,0.43524 -0.01379,-7.3e-4 -0.187392,-0.15168 -0.38578,-0.33526 z m 11.310912,-0.9198 c -1.702778,-1.71748 -2.896602,-2.7132 -4.139496,-3.45257 -0.446632,-0.26569 -0.454399,-0.27293 -0.33967,-0.31655 0.176231,-0.0669 0.216493,-0.0592 0.66059,0.12927 1.16079,0.49242 2.645806,1.41732 3.839877,2.39151 0.530709,0.43302 1.366132,1.19925 1.589147,1.45757 l 0.194006,0.22473 -0.348328,0.34171 -0.348328,0.34171 z m -16.42531,-0.47139 c -0.05858,-0.0102 -0.269494,-0.0399 -0.468688,-0.0667 -0.741035,-0.0995 -1.767294,-0.46037 -2.488827,-0.87532 -0.368816,-0.21211 -1.090229,-0.68627 -1.090229,-0.71658 0,-0.0102 0.07768,0.009 0.172637,0.0425 0.695166,0.24526 2.405638,0.35291 3.438616,0.21642 0.783084,-0.1035 0.976268,-0.17463 4.612458,-1.6984 0.925877,-0.388 1.798271,-0.73454 1.938658,-0.77008 0.810377,-0.20518 1.830492,-0.2957 2.709466,-0.24042 0.682797,0.0429 1.002966,0.0891 1.671049,0.2412 0.479852,0.10922 0.498353,0.11738 0.392136,0.17303 -0.09619,0.0503 -0.159389,0.048 -0.460999,-0.0178 -0.255781,-0.0558 -0.53238,-0.076 -1.031256,-0.0753 -0.833215,7.4e-4 -1.216292,0.0852 -1.917351,0.42112 -0.501674,0.24043 -0.801093,0.44516 -1.329247,0.90894 -0.831909,0.73046 -1.939389,1.46789 -2.806028,1.86843 -0.853614,0.39452 -1.611151,0.56846 -2.575456,0.59137 -0.363232,0.008 -0.708354,0.007 -0.766939,-0.003 z m -2.939939,-3.03112 c -1.767156,-0.18928 -3.384554,-0.83436 -4.708165,-1.87781 -0.296874,-0.23404 -1.27262,-1.20146 -1.242342,-1.23174 0.0089,-0.008 0.138462,0.0573 0.288258,0.14686 0.575403,0.34384 1.444083,0.68634 2.194002,0.86504 0.686687,0.16364 1.188664,0.21592 2.424355,0.25241 1.284788,0.0379 2.025632,0.10061 3.32341,0.28098 0.747713,0.10395 2.204765,0.33881 2.396689,0.38635 0.142174,0.0351 0.128384,-0.1527 -0.02131,-0.2903 -0.198346,-0.18233 -0.390316,-0.27415 -1.088812,-0.52075 -0.370356,-0.13075 -0.822882,-0.31551 -1.005613,-0.41058 -0.346669,-0.18036 -0.776836,-0.53764 -1.128002,-0.93686 -0.500244,-0.56872 -1.149901,-1.6969 -1.75431,-3.04646 -0.136439,-0.30465 -0.284121,-0.60664 -0.328185,-0.67108 -0.112268,-0.16419 -0.06444,-0.14722 0.237826,0.0844 0.341363,0.26159 1.262501,1.18067 2.23969,2.23467 0.811846,0.87566 1.710734,1.72776 2.286651,2.16764 0.369221,0.282 1.889541,1.06897 2.381182,1.2326 0.156613,0.052 0.278404,0.10112 0.270643,0.10885 -0.0078,0.007 -0.627328,0.15059 -1.376825,0.31738 -0.74949,0.16681 -1.842049,0.42587 -2.427909,0.5757 -0.585853,0.14983 -1.227666,0.29264 -1.42624,0.31735 -0.339212,0.0422 -1.203368,0.051 -1.535002,0.0154 z m 26.969329,-0.37619 c -0.199971,-0.0313 -0.554679,-0.10477 -0.788251,-0.16351 -0.71718,-0.18036 -3.335744,-0.72062 -3.972703,-0.81964 -0.243043,-0.0378 -0.256086,-0.0789 -0.04511,-0.14205 0.453457,-0.13586 1.894702,-0.90528 2.370947,-1.26573 0.46629,-0.35292 1.812914,-1.70928 2.786053,-2.80619 0.801867,-0.90386 1.372976,-1.48667 1.785249,-1.82182 0.232789,-0.18926 0.287538,-0.20253 0.174198,-0.0423 -0.04556,0.0644 -0.219894,0.43949 -0.387374,0.83343 -0.915713,2.15407 -1.655766,3.23768 -2.624627,3.84316 -0.164043,0.10256 -0.620269,0.3121 -1.013855,0.46572 -0.835598,0.32617 -0.916706,0.36543 -1.115955,0.54039 -0.107782,0.0947 -0.149701,0.16669 -0.149701,0.25736 0,0.0693 0.01792,0.11487 0.03978,0.10132 0.145345,-0.0899 3.177073,-0.61246 4.199677,-0.72396 0.328086,-0.0358 1.037504,-0.0844 1.576496,-0.108 1.007713,-0.0443 1.628754,-0.12684 2.371721,-0.31571 0.740293,-0.1882 1.651915,-0.57394 2.229182,-0.94322 0.129309,-0.0827 0.235079,-0.13372 0.235079,-0.11337 0,0.0692 -0.982682,1.06868 -1.31234,1.33491 -0.916445,0.74013 -2.076822,1.33064 -3.211429,1.63428 -1.102655,0.29509 -2.278573,0.39031 -3.147047,0.25489 z m -27.608447,-2.79226 c -0.363229,-0.0899 -0.938434,-0.21307 -1.278232,-0.27365 -1.286312,-0.2294 -1.570432,-0.29261 -2.109085,-0.46933 -2.253232,-0.73913 -4.1467301,-2.16272 -5.4123972,-4.06923 -0.364717,-0.54937 -0.7009557,-1.15139 -0.8924057,-1.59779 l -0.1096457,-0.25564 0.3648857,0.39119 c 0.4182297,0.44835 1.0733624,1.02812 1.4509381,1.28402 0.14227,0.0964 0.6599537,0.38372 1.1504104,0.63847 1.9218614,0.99822 4.0644254,2.29728 5.1515344,3.1234 0.433439,0.3294 0.953295,0.67713 1.012254,0.67713 0.06411,0 0.128832,-0.20605 0.100351,-0.31951 -0.01593,-0.0635 -0.293948,-0.38693 -0.637129,-0.74113 -0.665418,-0.68678 -1.027595,-1.18526 -1.380886,-1.9006 -0.504272,-1.021 -0.640088,-1.55247 -0.947334,-3.70688 -0.09147,-0.64136 -0.277678,-1.61825 -0.398486,-2.09053 l -0.06469,-0.2529 0.172513,0.19175 c 0.09488,0.10544 0.29357,0.37386 0.44152,0.5965 0.550805,0.82881 0.737617,1.25671 1.638393,3.75278 0.724514,2.00764 0.912464,2.48273 1.254514,3.17098 0.333078,0.67022 0.784838,1.42299 1.157037,1.92801 0.08526,0.11566 0.140013,0.12203 -0.664071,-0.0771 z m 29.543148,-0.60469 c 0.149386,-0.21675 0.374824,-0.58586 0.500957,-0.8202 0.541291,-1.00569 0.72433,-1.47079 1.534353,-3.89862 0.661535,-1.98278 0.855015,-2.51253 1.097126,-3.00384 0.28231,-0.57288 0.653314,-1.17894 0.936057,-1.52908 0.14965,-0.18534 0.158758,-0.15915 0.07232,0.20825 -0.109846,0.46742 -0.320349,1.8232 -0.386992,2.49254 -0.241379,2.42423 -0.861372,3.85004 -2.325257,5.34728 -0.417703,0.42725 -0.5129,0.63711 -0.370778,0.81739 0.05131,0.065 0.379853,-0.1246 0.711575,-0.4108 0.945359,-0.8157 3.525184,-2.47017 5.746904,-3.68553 0.860926,-0.47097 1.454312,-0.9575 2.202548,-1.80589 0.186897,-0.2119 0.347642,-0.37746 0.357208,-0.36788 0.02965,0.0297 -0.699,1.47221 -0.914149,1.80973 -0.549198,0.86168 -1.344043,1.76783 -2.118078,2.41468 -1.279134,1.06897 -3.003975,1.89741 -4.559385,2.18986 -0.718802,0.13514 -1.387794,0.28622 -2.082696,0.47032 -0.344401,0.0913 -0.636798,0.16591 -0.649788,0.16591 -0.01296,0 0.09862,-0.17735 0.247995,-0.39412 z M 10.711317,242.5012 C 8.7586439,241.25865 7.6178575,240.39302 6.6021191,239.38313 4.912627,237.70334 3.9646956,235.75231 3.8902686,233.80162 l -0.02031,-0.53261 0.164333,0.34087 c 0.5706947,1.18373 1.2525081,2.1289 2.1141828,2.93079 0.6988104,0.65031 1.5073811,1.66399 2.7941952,3.50299 0.6564527,0.93815 0.8590517,1.18592 1.1270014,1.37836 l 0.194349,0.13956 0.0463,-0.11985 c 0.02549,-0.066 0.03808,-0.20862 0.02802,-0.31712 -0.01772,-0.1911 -0.05015,-0.25392 -0.4049127,-0.78452 -0.320547,-0.47942 -0.5708437,-1.39091 -0.6554787,-2.38704 -0.07647,-0.89993 -0.0035,-1.82849 0.2844697,-3.61576 0.128061,-0.79507 0.232842,-1.49394 0.232842,-1.55305 0,-0.33099 0.202668,0.40718 0.3787547,1.37954 0.213223,1.1774 0.303258,1.94987 0.451915,3.87732 0.118497,1.5364 0.193014,2.22189 0.319866,2.94266 0.10265,0.58328 0.198007,0.89555 0.469413,1.53739 0.116705,0.27597 0.212186,0.50731 0.212186,0.51407 0,0.041 -0.149627,-0.0463 -0.916068,-0.53402 z m 39.651276,-0.1446 c 0.454882,-1.13995 0.545257,-1.51088 0.673447,-2.76418 0.04645,-0.45485 0.115221,-1.44055 0.152695,-2.19046 0.09751,-1.95164 0.236056,-3.25068 0.470317,-4.4099 0.152335,-0.7538 0.174904,-0.84034 0.200015,-0.76694 0.03396,0.0991 0.503982,2.6878 0.571636,3.14799 0.100339,0.68245 0.121213,1.98593 0.04145,2.58753 -0.113857,0.85858 -0.359706,1.57254 -0.723715,2.1017 -0.179048,0.26029 -0.258105,0.51449 -0.224468,0.72173 0.03686,0.22696 0.08658,0.24757 0.277763,0.11509 0.222084,-0.15392 0.568758,-0.59115 1.049933,-1.32419 1.196231,-1.82244 2.292991,-3.2715 2.797236,-3.69576 0.647437,-0.54471 1.48669,-1.79569 2.022655,-3.01498 l 0.140474,-0.31954 7.3e-4,0.45495 c 0.0036,1.15523 -0.36158,2.5299 -0.949237,3.58072 -1.031958,1.84534 -2.614926,3.35548 -5.651992,5.392 -1.032625,0.69242 -0.95898,0.6591 -0.849301,0.38424 z M 7.4305125,235.73273 c -0.2109117,-0.29574 -0.5587357,-0.74294 -0.7729484,-0.99379 -1.4559971,-1.70503 -2.2324668,-3.27136 -2.5952015,-5.23516 -0.223686,-1.21101 -0.234773,-2.45931 -0.03326,-3.74579 l 0.07153,-0.45662 0.07176,0.48997 c 0.1139457,0.77804 0.1879757,1.00352 0.8183974,2.49257 0.6711607,1.58528 1.0899724,2.63475 1.2182764,3.05286 0.04785,0.15583 0.1460127,0.60821 0.2182007,1.0053 0.325396,1.78995 0.6258657,2.5647 0.9312794,2.40123 0.120163,-0.0644 0.131286,-0.20444 0.0452,-0.56925 -0.3066827,-1.29974 -0.1800707,-2.9598 0.329837,-4.32461 0.1967177,-0.52655 0.4488227,-1.02927 1.0463764,-2.08665 0.2618257,-0.46327 0.5591137,-0.99572 0.6606497,-1.18321 l 0.1846007,-0.34085 -0.0211,0.23435 c -0.1426777,1.58196 -0.3629247,2.98896 -0.6429727,4.1075 -0.05811,0.23205 -0.2306757,0.82645 -0.3834947,1.32085 -0.5643317,1.8257 -0.7549624,2.759 -0.7601294,3.72153 -0.002,0.35729 -0.0035,0.64913 -0.0035,0.64855 0,-5e-4 -0.172558,-0.24305 -0.38347,-0.53878 z M 53.96203,235.51898 c 0.04127,-0.2059 -0.06009,-1.12177 -0.194727,-1.75997 -0.162296,-0.7697 -0.278336,-1.1748 -0.728265,-2.54232 -0.407994,-1.24004 -0.556017,-1.80477 -0.76183,-2.90642 -0.137264,-0.73473 -0.34284,-2.17227 -0.34284,-2.39748 0,-0.22437 1.531212,2.36901 1.868781,3.16513 0.413353,0.97481 0.609778,1.95458 0.618111,3.08329 0.0052,0.65804 -0.0092,0.84146 -0.0988,1.29179 -0.107608,0.54056 -0.102568,0.60892 0.0521,0.7065 0.05386,0.034 0.09603,0.0199 0.183992,-0.0611 0.274288,-0.25244 0.44575,-0.87297 0.700108,-2.53374 0.105762,-0.69048 0.314067,-1.34991 0.90176,-2.85472 1.088429,-2.78694 1.083439,-2.77089 1.178061,-3.79209 l 0.03159,-0.34087 0.09383,0.49 c 0.146845,0.76683 0.188429,1.23617 0.18687,2.10909 -0.0026,1.21988 -0.161793,2.22491 -0.527113,3.31887 -0.433045,1.2968 -1.011983,2.32582 -1.992185,3.54098 -0.226826,0.28122 -0.572384,0.74137 -0.767876,1.0226 -0.43543,0.6263 -0.434576,0.62534 -0.401588,0.46041 z M 6.4745021,228.0176 c -0.125507,-0.43939 -0.4087757,-1.32617 -0.6295007,-1.97061 -0.6247954,-1.82421 -0.7909254,-2.6454 -0.7887264,-3.89861 0.0015,-0.78879 0.06573,-1.32122 0.2452847,-2.02954 0.119149,-0.47006 0.410582,-1.24534 0.6396707,-1.70171 0.20424,-0.40686 0.4577487,-0.80607 0.4309637,-0.67866 -0.08324,0.39595 -0.1218617,0.87389 -0.09952,1.23141 0.01403,0.22494 0.1103517,1.40602 0.2140027,2.6246 l 0.18845,2.2156 -0.09652,1.44867 c -0.102929,1.54488 -0.09884,1.61742 0.09507,1.68785 0.07141,0.0259 0.121305,0.011 0.19892,-0.0596 0.08223,-0.075 0.13166,-0.21736 0.239602,-0.6908 0.2638137,-1.15708 0.6101637,-2.05289 1.0496964,-2.71493 0.132486,-0.19957 0.6319637,-0.74339 1.4002491,-1.52455 0.6568557,-0.66787 1.2736917,-1.31018 1.3707407,-1.42735 l 0.176451,-0.21304 -0.06166,0.29826 c -0.135144,0.65359 -0.508861,1.68635 -0.794013,2.19429 -0.07236,0.12889 -0.6341437,0.98365 -1.2484104,1.89945 -0.6142754,0.91582 -1.2316981,1.85531 -1.3720551,2.08779 -0.250078,0.4142 -0.6298437,1.22576 -0.8208567,1.75416 -0.05294,0.14648 -0.09928,0.26631 -0.10295,0.26631 -0.0035,0 -0.109371,-0.35953 -0.234878,-0.79889 z m 48.3139769,-0.032 c -0.05086,-0.11717 -0.130502,-0.30844 -0.176935,-0.42505 -0.280419,-0.70406 -0.672189,-1.34297 -1.803379,-2.94098 -1.566989,-2.21361 -1.800792,-2.58887 -2.123736,-3.40861 -0.147926,-0.37548 -0.331401,-0.97177 -0.383253,-1.24554 -0.02366,-0.12526 0.0079,-0.10143 0.345523,0.26263 0.204388,0.2202 0.843283,0.85191 1.419784,1.40381 1.159954,1.11045 1.351998,1.34782 1.720669,2.12683 0.257059,0.54315 0.422118,1.03602 0.622748,1.8595 0.08342,0.3421 0.170575,0.60362 0.216734,0.64976 0.108007,0.10803 0.274639,0.0982 0.352659,-0.0209 0.05798,-0.0885 0.05156,-0.2436 -0.06502,-1.56585 l -0.129388,-1.46764 0.15991,-2.57916 c 0.157675,-2.54301 0.158908,-2.58517 0.08822,-3.00386 -0.03942,-0.23357 -0.08351,-0.47259 -0.09786,-0.53121 -0.04022,-0.16359 0.305374,0.39063 0.557469,0.89413 0.612454,1.22323 0.880265,2.35882 0.879395,3.72884 -5.03e-4,1.14298 -0.138768,1.92336 -0.587175,3.31936 -0.350275,1.09048 -0.494461,1.58108 -0.721217,2.45399 l -0.182639,0.70302 z M 7.7779845,221.71223 c 0.01235,-0.2054 -0.01006,-0.79529 -0.04983,-1.31085 -0.113072,-1.46608 -0.127294,-2.42321 -0.0448,-3.01511 0.2100997,-1.50776 0.8768934,-2.75303 2.0063888,-3.74707 0.231866,-0.20405 0.4277037,-0.36488 0.4352017,-0.35739 0.0074,0.007 -0.06572,0.15126 -0.1626957,0.31947 -0.385626,0.66886 -0.5332827,1.13654 -0.8689837,2.75238 -0.3872297,1.86384 -0.5195077,2.37223 -0.8646874,3.32339 -0.280216,0.77215 -0.279869,1.02084 0.0015,0.99312 0.1236,-0.0122 0.150713,-0.0477 0.3703217,-0.48414 0.5994947,-1.19161 1.1974164,-1.86926 2.5332801,-2.87114 0.988018,-0.74101 1.722757,-1.3804 2.048063,-1.78228 0.116222,-0.14356 0.216439,-0.2559 0.222718,-0.24962 0.03793,0.038 -0.193559,0.71031 -0.368591,1.07067 -0.44788,0.92205 -1.248297,1.87292 -2.601762,3.09078 -0.222418,0.20012 -0.7834037,0.70463 -1.2466344,1.12112 -0.5675777,0.51032 -0.9383674,0.88166 -1.1370324,1.13871 l -0.2947987,0.38144 0.02245,-0.37348 z M 53.409928,221.1743 c -0.276706,-0.34631 -0.739941,-0.77149 -1.99603,-1.83209 -1.561648,-1.31861 -1.909045,-1.66561 -2.653911,-2.651 -0.413159,-0.54656 -0.677981,-1.05477 -0.843333,-1.61842 l -0.06323,-0.21568 0.432047,0.43311 c 0.506128,0.50735 1.039391,0.93696 1.923334,1.54942 0.351515,0.24357 0.790049,0.56937 0.974535,0.72407 0.586085,0.49137 1.237463,1.34096 1.650111,2.15221 0.204848,0.40273 0.31259,0.48202 0.466138,0.34304 0.139092,-0.12586 0.115256,-0.24126 -0.250442,-1.21275 -0.262136,-0.69636 -0.443435,-1.32276 -0.709073,-2.44996 -0.501713,-2.12887 -0.623514,-2.51502 -1.018108,-3.22755 -0.126544,-0.22847 -0.219751,-0.41542 -0.20715,-0.41542 0.01266,0 0.2032,0.1465 0.423531,0.32553 1.038917,0.84421 1.729891,1.96399 2.008182,3.25443 0.159057,0.73759 0.191771,1.25403 0.151067,2.38514 -0.02059,0.57414 -0.03758,1.43216 -0.03758,1.90673 0,0.47456 0,0.8627 0,0.8625 0,-1.7e-4 -0.112537,-0.14117 -0.250064,-0.31331 z m -42.944249,-5.3426 c 0.0808,-0.29878 0.231898,-0.77813 0.335812,-1.0652 0.445198,-1.22992 0.791001,-1.80346 1.513757,-2.51073 0.72621,-0.71061 1.639259,-1.309 2.715779,-1.77981 l 0.435126,-0.19032 -0.153002,0.17928 c -0.08415,0.0987 -0.217245,0.25598 -0.29576,0.34972 -0.07852,0.0937 -0.39885,0.56772 -0.711843,1.0533 -0.683257,1.06 -1.479197,2.20843 -1.797196,2.59307 -0.180707,0.21858 -2.106586,1.91396 -2.174184,1.91396 -0.0084,0 0.05073,-0.24448 0.131511,-0.54327 z m 39.657858,-0.6352 c -1.130522,-0.91838 -1.220024,-0.99853 -1.503206,-1.34637 -0.38252,-0.46986 -1.142998,-1.52695 -1.763688,-2.4516 -0.333899,-0.49744 -0.686098,-0.96528 -0.877375,-1.1655 -0.175758,-0.18395 -0.310291,-0.33447 -0.29897,-0.33447 0.0343,0 1.063511,0.44889 1.268957,0.55345 1.145036,0.58272 2.231458,1.48164 2.747493,2.27329 0.27265,0.41829 0.577592,1.04456 0.801981,1.6471 0.177507,0.47663 0.463445,1.40606 0.446304,1.45066 -0.0061,0.0172 -0.376238,-0.26487 -0.821496,-0.62656 z"
       id="path29546" />
    <path
       style="fill:#cccccc;stroke-width:0.0320849"
       d="m 13.063227,255.67589 c 0,-0.0903 0.175621,-2.22406 0.257866,-3.13305 0.323232,-3.57197 0.702504,-6.69516 1.203991,-9.91424 2.265102,-14.54022 6.686703,-26.9557 13.677676,-38.40576 0.633081,-1.03686 1.982479,-3.15237 2.072533,-3.24915 0.01127,-0.0123 0.9381,1.35375 1.356889,2.00016 5.277604,8.14621 8.833048,16.52963 11.46319,27.02929 1.019209,4.06874 1.817226,7.92828 3.028468,14.6468 0.856348,4.74989 1.141273,6.32659 1.161105,6.42502 0.0161,0.08 0.0099,0.10423 -0.02639,0.10423 -0.03184,0 -0.107487,-0.16497 -0.231851,-0.50532 -1.812342,-4.96241 -3.698342,-8.80269 -5.542662,-11.2859 -1.615503,-2.17515 -3.22209,-3.40193 -4.946017,-3.77672 -0.474706,-0.10326 -1.461343,-0.10283 -1.93789,4.7e-4 -1.016175,0.2208 -1.764879,0.58861 -3.323521,1.6327 -4.848526,3.24793 -10.792603,9.18373 -17.128132,17.10434 -0.596961,0.7463 -1.085375,1.34341 -1.085375,1.32693 z m 16.06141,-28.23955 c 0.703145,-1.18233 1.286465,-2.1497 1.296275,-2.1497 0.0099,0 0.320253,0.51616 0.689851,1.14706 1.511939,2.58066 1.756966,2.99454 1.766989,2.98452 0.0058,-0.006 -0.09503,-0.95578 -0.224022,-2.11114 -0.129034,-1.15536 -0.229504,-2.10968 -0.223402,-2.12073 0.0058,-0.0111 0.835823,-0.45733 1.843786,-0.99176 l 1.83267,-0.97165 -0.428388,-0.14897 c -0.2356,-0.082 -1.146584,-0.39303 -2.024404,-0.69131 l -1.596008,-0.54234 -0.01688,-0.0976 c -0.0099,-0.0538 -0.385472,-3.11472 -0.835889,-6.80221 -0.450408,-3.68752 -0.825498,-6.71112 -0.833515,-6.71915 -0.0081,-0.007 -0.01456,0.002 -0.01456,0.0216 0,0.0553 -1.702759,13.62409 -1.710104,13.62738 -0.0026,0.002 -0.912448,0.30238 -2.01979,0.66842 -1.107327,0.36605 -2.013325,0.67092 -2.013325,0.67747 0,0.006 0.833808,0.43368 1.852915,0.94917 1.019089,0.51549 1.855978,0.93962 1.859743,0.94252 0.0042,0.003 -0.107922,1.00085 -0.248152,2.21764 -0.275204,2.38777 -0.261471,2.26052 -0.244063,2.26052 0.0069,0 0.587232,-0.96736 1.290377,-2.14971 z"
       id="path29416" />
    <path
       style="fill:#d4aa00;stroke-width:0.0778995"
       d="m 92.616892,104.67543 -0.659468,-0.6102 1.321617,-1.31862 c 4.140777,-4.131437 8.608719,-6.800845 13.130169,-7.844835 1.48247,-0.34229 2.40576,-0.44425 4.00908,-0.44267 2.66957,0.004 3.10162,0.11074 7.8556,1.969758 4.45779,1.74298 6.17032,2.34807 7.13599,2.52123 0.93444,0.16761 3.18638,0.22736 4.33966,0.11525 0.52307,-0.0509 1.29413,-0.1755 1.7135,-0.27678 0.41933,-0.10154 0.77421,-0.17267 0.7886,-0.15822 0.0144,0.0131 -0.40027,0.30832 -0.92148,0.65315 -1.59721,1.056827 -3.21603,1.755227 -4.93502,2.129157 -0.67927,0.14771 -1.03164,0.1723 -2.50429,0.17361 -1.47685,0.001 -1.81611,-0.0216 -2.45383,-0.16592 -2.3914,-0.5416 -4.83558,-1.887997 -7.86785,-4.334017 -1.21627,-0.981148 -2.364,-1.546198 -3.77349,-1.857788 -0.59148,-0.13082 -0.90119,-0.15034 -1.91316,-0.12069 -1.029,0.03 -1.33985,0.0704 -2.10329,0.274 -0.49272,0.13138 -1.15603,0.34503 -1.47403,0.47493 -1.204,0.491868 -3.09526,1.781968 -4.991637,3.404968 -1.103668,0.944577 -4.323974,4.148927 -5.256997,5.230967 -0.378681,0.43918 -0.709143,0.79726 -0.734356,0.79574 -0.02521,-10e-4 -0.342608,-0.27732 -0.705318,-0.61295 z m 20.679638,-1.68164 c -3.11318,-3.140067 -5.29583,-4.960517 -7.5682,-6.312307 -0.81658,-0.485768 -0.83078,-0.498998 -0.62102,-0.578748 0.3222,-0.12238 0.39581,-0.10811 1.20775,0.236338 2.12226,0.90029 4.8373,2.59128 7.02041,4.372387 0.97029,0.79167 2.49769,2.19257 2.90543,2.66485 l 0.35469,0.41086 -0.63684,0.62475 -0.63684,0.62476 z m -30.030246,-0.86185 c -0.107098,-0.0188 -0.492712,-0.073 -0.856896,-0.12181 -1.354828,-0.18187 -3.231127,-0.84169 -4.550298,-1.60035 -0.674305,-0.38781 -1.993256,-1.254707 -1.993256,-1.310107 0,-0.0188 0.142027,0.0169 0.315631,0.0777 1.270965,0.4484 4.398202,0.64521 6.286788,0.39566 1.431706,-0.18922 1.784901,-0.31927 8.432914,-3.10514 1.692772,-0.709388 3.287762,-1.342968 3.544429,-1.407948 1.481606,-0.37512 3.346672,-0.54063 4.953691,-0.43956 1.248353,0.0785 1.833713,0.16292 3.055163,0.44099 0.87731,0.19968 0.91114,0.21461 0.71694,0.31635 -0.17587,0.092 -0.29141,0.0879 -0.84284,-0.0325 -0.46764,-0.1021 -0.97335,-0.13889 -1.88544,-0.13776 -1.523355,0.001 -2.223731,0.15578 -3.50547,0.76993 -0.917207,0.439558 -1.464631,0.813878 -2.430252,1.661778 -1.520969,1.3355 -3.545765,2.683737 -5.130233,3.416037 -1.560656,0.72131 -2.945652,1.03932 -4.708682,1.08119 -0.664095,0.015 -1.295077,0.0131 -1.402189,-0.006 z m -5.375063,-5.541767 c -3.230872,-0.34605 -6.187947,-1.525438 -8.607891,-3.433178 -0.542772,-0.42788 -2.326719,-2.19661 -2.271361,-2.25198 0.01614,-0.015 0.253148,0.10473 0.527019,0.26852 1.052003,0.62862 2.640202,1.25482 4.011271,1.58154 1.255464,0.29916 2.173224,0.39475 4.432425,0.46148 2.348967,0.0693 3.703443,0.18394 6.076159,0.51372 1.367036,0.19004 4.030951,0.61942 4.381845,0.70634 0.259935,0.0642 0.234722,-0.27917 -0.03897,-0.53076 -0.362635,-0.33334 -0.713612,-0.50121 -1.990664,-0.95207 -0.677121,-0.23905 -1.504469,-0.57684 -1.838554,-0.75066 -0.63381,-0.32974 -1.420281,-0.98295 -2.062314,-1.71285 -0.914592,-1.03979 -2.102355,-3.10242 -3.20739,-5.56982 -0.24945,-0.55698 -0.519455,-1.1091 -0.600016,-1.22692 -0.20526,-0.30019 -0.117815,-0.26917 0.434816,0.15429 0.624108,0.47828 2.308217,2.15862 4.094802,4.08563 1.48429,1.60097 3.12772,3.15884 4.180662,3.96307 0.675045,0.51558 3.45463,1.95439 4.353494,2.25356 0.286334,0.0952 0.509004,0.18488 0.494814,0.19901 -0.01427,0.0131 -1.146938,0.27533 -2.517237,0.58027 -1.370285,0.30497 -3.367802,0.77861 -4.438923,1.05255 -1.07111,0.273918 -2.244529,0.535018 -2.607582,0.580198 -0.620178,0.0771 -2.200104,0.0931 -2.806428,0.0281 z M 127.199,95.902385 c -0.36561,-0.0572 -1.01412,-0.19154 -1.44116,-0.29894 -1.31121,-0.32975 -6.09871,-1.31751 -7.26325,-1.49852 -0.44436,-0.0691 -0.4682,-0.14434 -0.0825,-0.25973 0.82905,-0.24839 3.46407,-1.6551 4.33478,-2.31411 0.85251,-0.64525 3.31453,-3.12505 5.09371,-5.13054 1.46605,-1.65251 2.5102,-2.71806 3.26396,-3.33082 0.4256,-0.34602 0.5257,-0.37027 0.31848,-0.0773 -0.0833,0.11768 -0.40203,0.80353 -0.70823,1.52377 -1.67419,3.93825 -3.02722,5.91941 -4.79858,7.02641 -0.29992,0.1875 -1.13403,0.5706 -1.85362,0.85147 -1.52772,0.59632 -1.67601,0.66811 -2.04029,0.98798 -0.19706,0.17305 -0.2737,0.30478 -0.2737,0.47053 0,0.12669 0.0328,0.21001 0.0727,0.18525 0.26573,-0.16423 5.80861,-1.11976 7.67823,-1.32363 0.59984,-0.0655 1.89686,-0.15429 2.88229,-0.19744 1.84239,-0.0809 2.97784,-0.23189 4.3362,-0.57721 1.35347,-0.34408 3.02018,-1.04934 4.07559,-1.72447 0.23641,-0.15128 0.42979,-0.24449 0.42979,-0.20729 0,0.12651 -1.79663,1.95385 -2.39934,2.44062 -1.67552,1.35317 -3.79703,2.43278 -5.87142,2.98792 -2.01597,0.53951 -4.16589,0.71361 -5.75372,0.46603 z m -50.476271,-5.10505 c -0.664087,-0.16442 -1.715729,-0.38956 -2.336979,-0.50031 -2.351752,-0.4194 -2.871207,-0.53497 -3.85602,-0.85806 -4.119562,-1.35136 -7.581424,-3.9541 -9.895431,-7.43975 -0.666808,-1.00441 -1.281551,-2.10508 -1.631578,-2.92122 l -0.200464,-0.4674 0.667117,0.71521 c 0.764645,0.81973 1.962419,1.87973 2.652737,2.34757 0.26011,0.17625 1.206587,0.70156 2.103284,1.16732 3.513719,1.82504 7.430949,4.20009 9.418499,5.71048 0.792452,0.60223 1.7429,1.23799 1.850694,1.23799 0.117214,0 0.235542,-0.37672 0.18347,-0.58416 -0.02913,-0.11618 -0.537422,-0.70742 -1.164855,-1.355 -1.216579,-1.25565 -1.878743,-2.16701 -2.524663,-3.47486 -0.921955,-1.86668 -1.170265,-2.83835 -1.731999,-6.77725 -0.167235,-1.17259 -0.507677,-2.95863 -0.728549,-3.82209 l -0.118266,-0.46236 0.315404,0.35055 c 0.173466,0.19278 0.536732,0.68354 0.807226,1.09057 1.00703,1.51533 1.348578,2.29765 2.995457,6.86119 1.324621,3.67055 1.66825,4.53914 2.293616,5.79747 0.608964,1.22536 1.434912,2.60164 2.1154,3.52498 0.155879,0.21145 0.255986,0.22309 -1.214115,-0.14096 z m 54.013461,-1.10555 c 0.27312,-0.39629 0.68529,-1.07113 0.9159,-1.49958 0.98963,-1.83868 1.32428,-2.689 2.80524,-7.12778 1.20948,-3.62511 1.56321,-4.59365 2.00586,-5.49191 0.51615,-1.04738 1.19445,-2.15543 1.71139,-2.7956 0.2736,-0.33886 0.29025,-0.29098 0.13223,0.38074 -0.20083,0.85459 -0.58569,3.33334 -0.70754,4.5571 -0.44131,4.43217 -1.57484,7.03897 -4.25124,9.77636 -0.76368,0.78115 -0.93773,1.16483 -0.67789,1.49444 0.0938,0.11881 0.69448,-0.22781 1.30096,-0.75108 1.7284,-1.49131 6.44506,-4.51616 10.50701,-6.73821 1.57403,-0.86106 2.65891,-1.75057 4.0269,-3.30169 0.3417,-0.38742 0.63559,-0.69009 0.65308,-0.67258 0.0542,0.0542 -1.27797,2.69162 -1.67133,3.30871 -1.00409,1.57541 -2.4573,3.2321 -3.87246,4.41474 -2.33863,1.95437 -5.49214,3.469 -8.33588,4.00368 -1.31418,0.2471 -2.53729,0.52331 -3.80777,0.8599 -0.62967,0.16686 -1.16425,0.30333 -1.18801,0.30333 -0.0237,0 0.1803,-0.32425 0.45341,-0.72057 z m -63.711932,-8.37976 c -3.570051,-2.27174 -5.655741,-3.85437 -7.512806,-5.70075 -3.088882,-3.07115 -4.821975,-6.63819 -4.958051,-10.20462 l -0.03713,-0.97376 0.30045,0.6232 c 1.043396,2.16422 2.289948,3.89226 3.86534,5.35833 1.277628,1.18896 2.75593,3.04226 5.108601,6.40449 1.200186,1.71522 1.570595,2.16821 2.060486,2.52004 l 0.355324,0.25515 0.08465,-0.21911 c 0.0466,-0.12069 0.06962,-0.38141 0.05124,-0.57978 -0.0324,-0.34939 -0.09169,-0.46424 -0.740296,-1.43434 -0.586054,-0.87652 -1.043669,-2.54298 -1.198405,-4.36419 -0.139813,-1.64533 -0.0064,-3.34302 0.520093,-6.61067 0.234132,-1.45361 0.425703,-2.73135 0.425703,-2.83942 0,-0.60514 0.370535,0.74445 0.692472,2.5222 0.389833,2.15262 0.554444,3.56494 0.826232,7.08886 0.216647,2.80898 0.352886,4.06227 0.584807,5.38004 0.187675,1.0664 0.362016,1.63733 0.858222,2.81078 0.213371,0.50458 0.387939,0.92753 0.387939,0.93988 0,0.0749 -0.27356,-0.0846 -1.674839,-0.97633 z m 72.494052,-0.26438 c 0.83166,-2.08417 0.99689,-2.76232 1.23126,-5.05372 0.0849,-0.83159 0.21066,-2.63375 0.27917,-4.00479 0.17827,-3.56818 0.43158,-5.9432 0.85988,-8.06258 0.27851,-1.37817 0.31977,-1.53638 0.36568,-1.4022 0.0621,0.18113 0.92143,4.9141 1.04512,5.75545 0.18345,1.24771 0.22161,3.63085 0.0758,4.73075 -0.20817,1.56974 -0.65765,2.87505 -1.32316,3.84252 -0.32736,0.4759 -0.47189,0.94062 -0.4104,1.31954 0.0674,0.41495 0.15829,0.45262 0.50784,0.2104 0.40603,-0.28141 1.03985,-1.08077 1.91958,-2.421 2.18706,-3.33195 4.19225,-5.98126 5.11416,-6.75692 1.1837,-0.99588 2.7181,-3.28306 3.698,-5.51225 l 0.25683,-0.58423 0.001,0.8318 c 0.007,2.11209 -0.66108,4.62538 -1.73549,6.54659 -1.88671,3.37381 -4.78084,6.13479 -10.33348,9.85812 -1.88794,1.26597 -1.75329,1.20505 -1.55277,0.70252 z M 61.025995,68.937275 c -0.385607,-0.54069 -1.02153,-1.3583 -1.413173,-1.81693 -2.661986,-3.11728 -4.081598,-5.98099 -4.744782,-9.57138 -0.408964,-2.21409 -0.429233,-4.496347 -0.06081,-6.848389 l 0.13077,-0.83486 0.131188,0.895823 c 0.208327,1.422472 0.343675,1.834721 1.496269,4.557138 1.227076,2.898368 1.992785,4.817098 2.227362,5.581518 0.08748,0.2849 0.266953,1.11199 0.398935,1.83798 0.594918,3.27255 1.144264,4.68901 1.702649,4.39015 0.219693,-0.11768 0.240029,-0.37377 0.08264,-1.04076 -0.560705,-2.37629 -0.329221,-5.41137 0.603038,-7.90664 0.359658,-0.96269 0.820578,-1.881813 1.913079,-3.814998 0.478695,-0.847004 1.022223,-1.820475 1.207859,-2.16326 l 0.337504,-0.623179 -0.03857,0.428466 c -0.260856,2.892279 -0.663531,5.464691 -1.17554,7.509711 -0.106234,0.42424 -0.421743,1.51098 -0.701139,2.4149 -1.031764,3.3379 -1.380289,5.04425 -1.389738,6.80403 -0.0038,0.65323 -0.0064,1.1868 -0.0064,1.18573 0,-9.2e-4 -0.315486,-0.44436 -0.701095,-0.98505 z m 85.073135,-0.39079 c 0.0755,-0.37644 -0.10988,-2.05091 -0.35602,-3.21773 -0.29672,-1.40723 -0.50888,-2.14788 -1.33148,-4.64809 -0.74593,-2.26717 -1.01656,-3.29965 -1.39285,-5.313807 -0.25095,-1.343284 -0.62681,-3.971535 -0.62681,-4.383278 0,-0.410203 2.79951,4.331249 3.41668,5.786775 0.75573,1.78224 1.11485,3.57355 1.13009,5.63716 0.01,1.20308 -0.0169,1.53843 -0.18064,2.36177 -0.19674,0.9883 -0.18753,1.11328 0.0952,1.29168 0.0985,0.0621 0.17557,0.0364 0.33639,-0.11167 0.50148,-0.46154 0.81496,-1.59603 1.28,-4.63241 0.19337,-1.2624 0.57421,-2.46803 1.64868,-5.219262 1.98996,-5.095348 1.98084,-5.065993 2.15384,-6.933054 l 0.0577,-0.623198 0.17155,0.89586 c 0.26847,1.401994 0.3445,2.260072 0.34165,3.856028 -0.005,2.230304 -0.2958,4.067786 -0.96371,6.067866 -0.79173,2.37092 -1.8502,4.25227 -3.6423,6.47394 -0.4147,0.51415 -1.04648,1.35544 -1.4039,1.86959 -0.79609,1.14508 -0.79453,1.14332 -0.73422,0.84179 z M 59.278131,54.8318 c -0.229463,-0.803346 -0.74736,-2.424641 -1.150909,-3.602848 -1.142308,-3.335198 -1.446042,-4.836576 -1.442021,-7.127805 0.0027,-1.442141 0.120169,-2.415575 0.448451,-3.710584 0.217838,-0.85941 0.750663,-2.276852 1.169504,-3.111224 0.37341,-0.743866 0.836897,-1.47373 0.787927,-1.240784 -0.152182,0.723914 -0.222799,1.597721 -0.18196,2.251363 0.02566,0.411255 0.201756,2.57061 0.391261,4.79853 l 0.34454,4.050779 -0.176462,2.648578 c -0.188184,2.824503 -0.180711,2.957127 0.173823,3.085885 0.130562,0.0473 0.22178,0.02008 0.363682,-0.10905 0.150332,-0.137016 0.240715,-0.397384 0.438064,-1.26297 0.482327,-2.115473 1.115556,-3.753285 1.919148,-4.963681 0.242224,-0.364857 1.155414,-1.359125 2.560064,-2.787321 1.200922,-1.221058 2.328676,-2.395399 2.506111,-2.609613 l 0.322602,-0.389502 -0.112747,0.545306 c -0.247084,1.194949 -0.930345,3.083144 -1.451686,4.011795 -0.132286,0.235649 -1.159399,1.798402 -2.282456,3.472758 -1.123073,1.674375 -2.251902,3.39205 -2.508516,3.817082 -0.457215,0.757286 -1.151537,2.241039 -1.500764,3.207116 -0.0968,0.267801 -0.181505,0.486895 -0.188222,0.486895 -0.0064,0 -0.199962,-0.657321 -0.429425,-1.460611 z m 88.331989,-0.05856 c -0.093,-0.214233 -0.2386,-0.563925 -0.32349,-0.777107 -0.51269,-1.287238 -1.22896,-2.455347 -3.2971,-5.376963 -2.86491,-4.047138 -3.29237,-4.733213 -3.88281,-6.231944 -0.27045,-0.686489 -0.60589,-1.776687 -0.70069,-2.277208 -0.0433,-0.229005 0.0144,-0.185441 0.63171,0.480157 0.37368,0.402602 1.54177,1.557554 2.59578,2.566575 2.12073,2.030241 2.47184,2.464207 3.14588,3.888461 0.46998,0.993048 0.77176,1.894164 1.13857,3.399708 0.15252,0.625451 0.31186,1.103599 0.39625,1.187968 0.19747,0.197491 0.50212,0.179434 0.64476,-0.03829 0.10601,-0.161791 0.0943,-0.445377 -0.11888,-2.86283 l -0.23656,-2.683264 0.29236,-4.715476 c 0.28828,-4.649351 0.29053,-4.726418 0.16128,-5.491925 -0.0721,-0.427021 -0.15267,-0.864028 -0.1789,-0.971182 -0.0735,-0.299089 0.55831,0.714173 1.01921,1.634715 1.11974,2.236422 1.60938,4.312611 1.60779,6.817397 -9.2e-4,2.089703 -0.25371,3.516472 -1.07353,6.068745 -0.6404,1.993735 -0.90402,2.890684 -1.31859,4.486622 l -0.33392,1.285324 z M 61.661275,43.303732 c 0.02258,-0.375537 -0.01839,-1.454004 -0.09111,-2.3966 -0.206727,-2.680429 -0.23273,-4.430351 -0.08191,-5.512515 0.384124,-2.756615 1.603217,-5.033335 3.668262,-6.850732 0.42392,-0.373059 0.781966,-0.667099 0.795673,-0.653398 0.01351,0.01314 -0.120161,0.276529 -0.297453,0.584064 -0.705036,1.222897 -0.974995,2.077934 -1.588754,5.032152 -0.707968,3.407648 -0.949811,4.337143 -1.5809,6.07614 -0.512316,1.411717 -0.511682,1.866385 0.0028,1.815708 0.225977,-0.02233 0.275547,-0.08709 0.677055,-0.885162 1.096051,-2.178594 2.189226,-3.417539 4.631572,-5.249257 1.806382,-1.354789 3.149699,-2.523781 3.744454,-3.258525 0.212487,-0.262489 0.395712,-0.467863 0.407191,-0.456395 0.06935,0.06945 -0.353881,1.298669 -0.67389,1.957491 -0.818855,1.685787 -2.282249,3.42424 -4.756776,5.650846 -0.406645,0.365889 -1.432288,1.288289 -2.279209,2.049743 -1.037697,0.933004 -1.71561,1.611929 -2.078824,2.081894 l -0.538983,0.697393 0.04105,-0.682847 z m 83.428455,-0.983475 c -0.5059,-0.633165 -1.35283,-1.410516 -3.64933,-3.349613 -2.85514,-2.41079 -3.49028,-3.045212 -4.85212,-4.846786 -0.75537,-0.99928 -1.23954,-1.928418 -1.54185,-2.958948 l -0.1156,-0.394325 0.7899,0.791841 c 0.92535,0.927599 1.90031,1.713039 3.51642,2.832799 0.64267,0.445321 1.44444,1.040985 1.78173,1.323801 1.07153,0.898375 2.26244,2.451669 3.01688,3.934878 0.37452,0.736302 0.57151,0.881258 0.85224,0.627177 0.2543,-0.230112 0.21072,-0.441098 -0.45788,-2.217259 -0.47926,-1.273161 -0.81073,-2.418391 -1.2964,-4.479226 -0.91727,-3.892215 -1.13996,-4.598205 -1.86139,-5.900909 -0.23136,-0.417712 -0.40177,-0.75952 -0.37873,-0.75952 0.0232,0 0.37151,0.267857 0.77434,0.595175 1.89944,1.543459 3.16274,3.590743 3.67154,5.950029 0.2908,1.348539 0.35061,2.292731 0.27619,4.360736 -0.0377,1.049693 -0.0687,2.618415 -0.0687,3.486065 0,0.867632 0,1.577244 0,1.576906 0,-3.19e-4 -0.20575,-0.258116 -0.45719,-0.572821 z M 66.575162,32.552433 c 0.147715,-0.546263 0.423975,-1.422659 0.61396,-1.947506 0.813953,-2.24866 1.44618,-3.297246 2.767588,-4.590341 1.327723,-1.299213 2.997041,-2.39324 4.965231,-3.25402 l 0.795538,-0.347946 -0.279732,0.327769 c -0.153853,0.180373 -0.397188,0.468013 -0.540735,0.639377 -0.143567,0.171364 -0.729213,1.037982 -1.301457,1.925752 -1.249193,1.93799 -2.704401,4.03764 -3.285794,4.74089 -0.330387,0.399618 -3.851451,3.49926 -3.97504,3.49926 -0.01539,0 0.09276,-0.446972 0.240441,-0.993235 z m 72.506088,-1.161334 c -2.06692,-1.679086 -2.23056,-1.825618 -2.7483,-2.461579 -0.69936,-0.859035 -2.08973,-2.791694 -3.22453,-4.482229 -0.61047,-0.90945 -1.25439,-1.764806 -1.6041,-2.130864 -0.32133,-0.336309 -0.5673,-0.611505 -0.5466,-0.611505 0.0627,0 1.9444,0.820708 2.32002,1.011855 2.09346,1.065385 4.07975,2.708865 5.02321,4.156243 0.49849,0.764757 1.05601,1.909761 1.46626,3.011371 0.32453,0.871423 0.84731,2.570685 0.81597,2.652238 -0.0113,0.03135 -0.68787,-0.484267 -1.50193,-1.14553 z"
       id="path29546-7" />
    <path
       style="fill:#cccccc;stroke-width:0.0586606"
       d="m 71.324231,105.49003 c 0,-0.16517 0.321087,-4.06622 0.471454,-5.728113 0.590962,-6.530608 1.284382,-12.240708 2.201245,-18.126128 4.141266,-26.583743 12.225236,-49.282849 25.006767,-70.216887 1.157453,-1.8956655 3.624543,-5.7634241 3.789193,-5.9403811 0.0206,-0.02252 1.71512,2.4750546 2.48079,3.6568656 9.64899,14.8936355 16.14938,30.2209735 20.95804,49.4174025 1.86341,7.43883 3.32242,14.4952 5.53692,26.77861 1.56565,8.68417 2.08658,11.56684 2.12284,11.7468 0.0294,0.14621 0.018,0.190568 -0.0482,0.190568 -0.0582,0 -0.19652,-0.301628 -0.42389,-0.923888 -3.31349,-9.07272 -6.76165,-16.09386 -10.1336,-20.63389 -2.95361,-3.97681 -5.89092,-6.21973 -9.04275,-6.90496 -0.86791,-0.18878 -2.67176,-0.18799 -3.54303,8.8e-4 -1.85786,0.40367 -3.22671,1.07614 -6.07636,2.98504 -8.864521,5.93817 -19.73202,16.79054 -31.315209,31.271701 -1.091417,1.36446 -1.98438,2.45615 -1.98438,2.426 z M 100.68916,53.859931 c 1.28555,-2.161646 2.35203,-3.93028 2.36996,-3.93028 0.018,0 0.58552,0.943703 1.26125,2.097154 2.76427,4.718197 3.21225,5.474902 3.23058,5.456583 0.0105,-0.01126 -0.17375,-1.747444 -0.40958,-3.859782 -0.23591,-2.112338 -0.4196,-3.857117 -0.40845,-3.877313 0.0105,-0.02027 1.52813,-0.836136 3.37098,-1.813211 l 3.35065,-1.77648 -0.78322,-0.272362 c -0.43074,-0.149967 -2.09628,-0.718565 -3.70119,-1.263908 l -2.91797,-0.991546 -0.0309,-0.178496 c -0.018,-0.09835 -0.70476,-5.694616 -1.52825,-12.436429 -0.82348,-6.741851 -1.50925,-12.26987 -1.52391,-12.284548 -0.0148,-0.01314 -0.0266,0.0038 -0.0266,0.0396 0,0.101166 -3.113135,24.908801 -3.126562,24.914807 -0.0047,0.0038 -1.668222,0.552832 -3.692765,1.222071 -2.024515,0.669239 -3.680942,1.226614 -3.680942,1.238607 0,0.01126 1.524443,0.792892 3.387665,1.735356 1.863193,0.942465 3.393269,1.717901 3.400151,1.723194 0.0077,0.0056 -0.197312,1.829841 -0.453692,4.054495 -0.503153,4.365546 -0.478046,4.132876 -0.446218,4.132876 0.01276,0 1.07363,-1.768616 2.359183,-3.93028 z"
       id="path29416-3" />
  </g>
</svg>
